<?xml version="1.0" encoding="UTF-8" standalone="no"?>
<!-- Created with Inkscape (http://www.inkscape.org/) -->

<svg
   xmlns:dc="http://purl.org/dc/elements/1.1/"
   xmlns:cc="http://creativecommons.org/ns#"
   xmlns:rdf="http://www.w3.org/1999/02/22-rdf-syntax-ns#"
   xmlns:svg="http://www.w3.org/2000/svg"
   xmlns="http://www.w3.org/2000/svg"
   xmlns:xlink="http://www.w3.org/1999/xlink"
   xmlns:sodipodi="http://sodipodi.sourceforge.net/DTD/sodipodi-0.dtd"
   xmlns:inkscape="http://www.inkscape.org/namespaces/inkscape"
   width="1024"
   height="1024"
   viewBox="0 0 1024 1024"
   id="svg2"
   version="1.1"
   inkscape:version="0.91 r"
   sodipodi:docname="logo_icon.svg"
   inkscape:export-filename="/home/mmg/Documents/projects/openBVE/WorkingFiles/logo_icon.png"
   inkscape:export-xdpi="11.25"
   inkscape:export-ydpi="11.25">
  <defs
     id="defs4" />
  <sodipodi:namedview
     id="base"
     pagecolor="#ffffff"
     bordercolor="#666666"
     borderopacity="1.0"
     inkscape:pageopacity="0.0"
     inkscape:pageshadow="2"
     inkscape:zoom="0.7"
     inkscape:cx="457.90467"
     inkscape:cy="464.23091"
     inkscape:document-units="px"
     inkscape:current-layer="layer1"
     showgrid="true"
     units="px"
     inkscape:snap-bbox="true"
     inkscape:object-nodes="true"
     inkscape:snap-smooth-nodes="true"
     inkscape:snap-text-baseline="true"
     inkscape:window-width="1280"
     inkscape:window-height="972"
     inkscape:window-x="0"
     inkscape:window-y="0"
     inkscape:window-maximized="1">
    <inkscape:grid
       type="xygrid"
       id="grid3336"
       empspacing="4" />
  </sodipodi:namedview>
  <metadata
     id="metadata7">
    <rdf:RDF>
      <cc:Work
         rdf:about="">
        <dc:format>image/svg+xml</dc:format>
        <dc:type
           rdf:resource="http://purl.org/dc/dcmitype/StillImage" />
        <dc:title></dc:title>
      </cc:Work>
    </rdf:RDF>
  </metadata>
  <g
     inkscape:groupmode="layer"
     id="layer3"
     inkscape:label="Bitmap"
     style="display:none">
    <image
       transform="translate(0,-28.362161)"
       sodipodi:absref="/home/mmg/Documents/projects/openBVE/leezer3/openBVE/OpenBve/Data/Menu/logo.png"
       y="28.362183"
       x="0"
       id="image3432"
       xlink:href="file:///home/mmg/Documents/projects/openBVE/leezer3/openBVE/OpenBve/Data/Menu/logo.png"
       style="image-rendering:optimizeQuality"
       preserveAspectRatio="none"
       height="1024"
       width="1024" />
  </g>
  <g
     inkscape:groupmode="layer"
     id="layer5"
     inkscape:label="Working Shapes"
     style="display:none">
    <rect
       transform="translate(0,-28.362161)"
       style="display:inline;opacity:1;fill:#e3e3e3;fill-opacity:1;fill-rule:evenodd;stroke:#e3e3e3;stroke-width:0;stroke-linecap:round;stroke-linejoin:miter;stroke-miterlimit:4;stroke-dasharray:none;stroke-dashoffset:0;stroke-opacity:1"
       id="rect5022"
       width="44"
       height="14"
       x="488"
       y="541.36218" />
    <path
       transform="translate(0,-28.362161)"
       style="display:inline;fill:#ffb000;fill-opacity:1;fill-rule:evenodd;stroke:#000000;stroke-width:0;stroke-linecap:butt;stroke-linejoin:miter;stroke-miterlimit:4;stroke-dasharray:none;stroke-opacity:1"
       d="m 542,555.36216 -2,25 -25,-25 z"
       id="path5024"
       inkscape:connector-curvature="0" />
    <rect
       transform="translate(0,-28.362161)"
       style="display:inline;opacity:1;fill:#ffb000;fill-opacity:1;fill-rule:evenodd;stroke:#e3e3e3;stroke-width:0;stroke-linecap:round;stroke-linejoin:miter;stroke-miterlimit:4;stroke-dasharray:none;stroke-dashoffset:0;stroke-opacity:1"
       id="rect5026"
       width="66"
       height="33"
       x="543"
       y="548.36218" />
    <rect
       style="opacity:1;fill:#e3e3e3;fill-opacity:1;fill-rule:evenodd;stroke:#e3e3e3;stroke-width:0;stroke-linecap:round;stroke-linejoin:miter;stroke-miterlimit:4;stroke-dasharray:none;stroke-dashoffset:0;stroke-opacity:1"
       id="rect5034"
       width="14"
       height="62"
       x="544"
       y="489" />
    <rect
       style="opacity:1;fill:#e3e3e3;fill-opacity:1;fill-rule:evenodd;stroke:#e3e3e3;stroke-width:0;stroke-linecap:round;stroke-linejoin:miter;stroke-miterlimit:4;stroke-dasharray:none;stroke-dashoffset:0;stroke-opacity:1"
       id="rect5036"
       width="14"
       height="31"
       x="594"
       y="520" />
    <path
       id="path5078"
       style="opacity:1;fill:#e3e3e3;fill-opacity:1;fill-rule:evenodd;stroke:#e3e3e3;stroke-width:0;stroke-linecap:round;stroke-linejoin:miter;stroke-miterlimit:4;stroke-dasharray:none;stroke-dashoffset:0;stroke-opacity:1"
       d="m 540,520 a 32,32 0 0 1 -31.95406,31.99997 32,32 0 0 1 -32.04581,-31.9081 32,32 0 0 1 31.86206,-32.09157 32,32 0 0 1 32.13728,31.81595 M 526,520 a 18,18 0 0 1 -17.97416,17.99998 18,18 0 0 1 -18.02577,-17.9483 18,18 0 0 1 17.92241,-18.05151 18,18 0 0 1 18.07722,17.89647"
       inkscape:connector-curvature="0" />
    <path
       inkscape:connector-curvature="0"
       id="path5078-6"
       style="display:inline;opacity:1;fill:#e3e3e3;fill-opacity:1;fill-rule:evenodd;stroke:#e3e3e3;stroke-width:0;stroke-linecap:round;stroke-linejoin:miter;stroke-miterlimit:4;stroke-dasharray:none;stroke-dashoffset:0;stroke-opacity:1"
       d="m 608,520 a 32,32 0 0 1 -31.95406,31.99997 32,32 0 0 1 -32.04581,-31.9081 32,32 0 0 1 31.86206,-32.09157 32,32 0 0 1 32.13728,31.81595 M 594,520 a 18,18 0 0 1 -17.97416,17.99998 18,18 0 0 1 -18.02577,-17.9483 18,18 0 0 1 17.92241,-18.05151 18,18 0 0 1 18.07722,17.89647" />
  </g>
  <g
     inkscape:groupmode="layer"
     id="layer2"
     inkscape:label="Background"
     style="display:inline">
    <rect
       style="opacity:1;fill:#636363;fill-opacity:1;fill-rule:evenodd;stroke:#ffffff;stroke-width:0;stroke-linecap:round;stroke-linejoin:miter;stroke-miterlimit:4;stroke-dasharray:none;stroke-dashoffset:0;stroke-opacity:1"
       id="rect3437-2"
       width="992"
       height="992"
       x="16"
       y="16"
       ry="153" />
  </g>
  <g
     inkscape:label="Logo"
     inkscape:groupmode="layer"
     id="layer1"
     transform="translate(0,-28.362161)"
     style="display:inline">
    <ellipse
       style="opacity:1;fill:none;fill-opacity:1;fill-rule:evenodd;stroke:#e3e3e3;stroke-width:88;stroke-linecap:round;stroke-linejoin:miter;stroke-miterlimit:4;stroke-dasharray:none;stroke-dashoffset:0;stroke-opacity:1"
       id="path4257"
       ry="230.00002"
       rx="230"
       cy="550.36218"
       cx="510" />
    <rect
       style="opacity:1;fill:#e3e3e3;fill-opacity:1;fill-rule:evenodd;stroke:#e3e3e3;stroke-width:0;stroke-linecap:round;stroke-linejoin:miter;stroke-miterlimit:4;stroke-dasharray:none;stroke-dashoffset:0;stroke-opacity:1"
       id="rect4267"
       width="88"
       height="504.00003"
       x="236"
       y="48.36216"
       ry="1.2709961e-06" />
    <circle
       style="opacity:1;fill:#ffb000;fill-opacity:1;fill-rule:evenodd;stroke:#e3e3e3;stroke-width:0;stroke-linecap:round;stroke-linejoin:miter;stroke-miterlimit:4;stroke-dasharray:none;stroke-dashoffset:0;stroke-opacity:1"
       id="path5020"
       cx="652"
       cy="548.36218"
       r="32" />
  </g>
  <g
     inkscape:groupmode="layer"
     id="layer6"
     inkscape:label="Logo 1">
    <rect
       style="display:inline;opacity:1;fill:#e3e3e3;fill-opacity:1;fill-rule:evenodd;stroke:#e3e3e3;stroke-width:0;stroke-linecap:round;stroke-linejoin:miter;stroke-miterlimit:4;stroke-dasharray:none;stroke-dashoffset:0;stroke-opacity:1"
       id="rect5022-4"
       width="44"
       height="14"
       x="488"
       y="513" />
    <rect
       style="display:inline;opacity:1;fill:#e3e3e3;fill-opacity:1;fill-rule:evenodd;stroke:#e3e3e3;stroke-width:0;stroke-linecap:round;stroke-linejoin:miter;stroke-miterlimit:4;stroke-dasharray:none;stroke-dashoffset:0;stroke-opacity:1"
       id="rect5034-0"
       width="14"
       height="62"
       x="544"
       y="489" />
    <rect
       style="display:inline;opacity:1;fill:#e3e3e3;fill-opacity:1;fill-rule:evenodd;stroke:#e3e3e3;stroke-width:0;stroke-linecap:round;stroke-linejoin:miter;stroke-miterlimit:4;stroke-dasharray:none;stroke-dashoffset:0;stroke-opacity:1"
       id="rect5036-3"
       width="14"
       height="31"
       x="594"
       y="520" />
    <path
       style="display:inline;opacity:1;fill:#e3e3e3;fill-opacity:1;fill-rule:evenodd;stroke:#e3e3e3;stroke-width:0;stroke-linecap:round;stroke-linejoin:miter;stroke-miterlimit:4;stroke-dasharray:none;stroke-dashoffset:0;stroke-opacity:1"
       d="M 507.86133 488 A 32 32 0 0 0 476 520.0918 A 32 32 0 0 0 508.04688 552 A 32 32 0 0 0 530.61328 542.61328 L 520.7207 532.7207 A 18 18 0 0 1 508.02539 538 A 18 18 0 0 1 490 520.05078 A 18 18 0 0 1 507.92188 502 A 18 18 0 0 1 526 519.89648 L 526 520 A 18 18 0 0 1 524.58203 527 L 539.19727 527 A 32 32 0 0 0 540 520 L 540 519.81641 A 32 32 0 0 0 507.86133 488 z "
       id="path5078-3" />
    <path
       style="display:inline;opacity:1;fill:#e3e3e3;fill-opacity:1;fill-rule:evenodd;stroke:#e3e3e3;stroke-width:0;stroke-linecap:round;stroke-linejoin:miter;stroke-miterlimit:4;stroke-dasharray:none;stroke-dashoffset:0;stroke-opacity:1"
       d="M 575.86133 488 A 32 32 0 0 0 544.00391 520 L 558.00195 520 A 18 18 0 0 1 575.92188 502 A 18 18 0 0 1 594 519.89648 L 594 520 L 608 520 L 608 519.81641 A 32 32 0 0 0 575.86133 488 z "
       id="path5078-6-5" />
    <path
       transform="translate(0,-28.362161)"
       style="display:inline;opacity:1;fill:none;fill-opacity:1;fill-rule:evenodd;stroke:#e3e3e3;stroke-width:14;stroke-linecap:round;stroke-linejoin:miter;stroke-miterlimit:4;stroke-dasharray:none;stroke-dashoffset:0;stroke-opacity:1"
       id="path4425-5"
       sodipodi:type="arc"
       sodipodi:cx="440"
       sodipodi:cy="548.36218"
       sodipodi:rx="25"
       sodipodi:ry="25.000021"
       sodipodi:start="0"
       sodipodi:end="6.2774432"
       sodipodi:open="true"
       d="m 465,548.36218 a 25,25.000021 0 0 1 -24.96411,25 25,25.000021 0 0 1 -25.03579,-24.92822 25,25.000021 0 0 1 24.89224,-25.07157 25,25.000021 0 0 1 25.10725,24.85624" />
    <rect
       transform="translate(0,-28.362161)"
       style="display:inline;opacity:1;fill:#e3e3e3;fill-opacity:1;fill-rule:evenodd;stroke:#e3e3e3;stroke-width:0;stroke-linecap:round;stroke-linejoin:miter;stroke-miterlimit:4;stroke-dasharray:none;stroke-dashoffset:0;stroke-opacity:1"
       id="rect4442"
       width="14"
       height="71.999977"
       x="408"
       y="548.36218"
       ry="0" />
    <path
       transform="translate(0,-28.362161)"
       style="display:inline;opacity:1;fill:none;fill-opacity:1;fill-rule:evenodd;stroke:#e3e3e3;stroke-width:14;stroke-linecap:round;stroke-linejoin:miter;stroke-miterlimit:4;stroke-dasharray:none;stroke-dashoffset:0;stroke-opacity:1"
       id="path4425"
       sodipodi:type="arc"
       sodipodi:cx="372"
       sodipodi:cy="548.36218"
       sodipodi:rx="25"
       sodipodi:ry="25.000021"
       sodipodi:start="0"
       sodipodi:end="6.2774432"
       sodipodi:open="true"
       d="m 397,548.36218 a 25,25.000021 0 0 1 -24.96411,25 25,25.000021 0 0 1 -25.03579,-24.92822 25,25.000021 0 0 1 24.89224,-25.07157 25,25.000021 0 0 1 25.10725,24.85624" />
  </g>
  <g
     inkscape:groupmode="layer"
     id="layer4"
     inkscape:label="Frame">
    <rect
       transform="translate(0,-28.362161)"
       style="display:inline;opacity:1;fill:none;fill-opacity:1;fill-rule:evenodd;stroke:#ffffff;stroke-width:32;stroke-linecap:round;stroke-linejoin:miter;stroke-miterlimit:4;stroke-dasharray:none;stroke-dashoffset:0;stroke-opacity:1"
       id="rect3437"
       width="992"
       height="992"
       x="16"
       y="44.36216"
       ry="153" />
  </g>
</svg>
